<?xml version="1.0" encoding="iso-8859-1"?>
<!-- Generator: Adobe Illustrator 19.0.0, SVG Export Plug-In . SVG Version: 6.00 Build 0)  -->
<svg version="1.1" id="Layer_1" xmlns="http://www.w3.org/2000/svg" xmlns:xlink="http://www.w3.org/1999/xlink" x="0px" y="0px"
	 viewBox="0 0 495 495" style="enable-background:new 0 0 495 495;" xml:space="preserve">
<g>
	<path style="fill:#2488FF;" d="M0,0v495h495V0H0z M455,455H40V40h415V455z"/>
	<path style="fill:#9BC9FF;" d="M415,80H227.5v110.94c6.26-2.22,12.989-3.44,20-3.44s13.74,1.22,20,3.44V120H375v255H120V120h67.5
		V80H80v335h335V80z"/>
	<path style="fill:#2488FF;" d="M247.5,187.5c-7.011,0-13.74,1.22-20,3.44c-23.278,8.256-40,30.487-40,56.56
		c0,33.084,26.916,60,60,60V187.5z"/>
	<path style="fill:#005ECE;" d="M247.5,307.5c33.084,0,60-26.916,60-60c0-26.073-16.722-48.303-40-56.56
		c-6.26-2.22-12.989-3.44-20-3.44V307.5z"/>
</g>
<g>
</g>
<g>
</g>
<g>
</g>
<g>
</g>
<g>
</g>
<g>
</g>
<g>
</g>
<g>
</g>
<g>
</g>
<g>
</g>
<g>
</g>
<g>
</g>
<g>
</g>
<g>
</g>
<g>
</g>
</svg>
