<svg id="svg" version="1.1" xmlns="http://www.w3.org/2000/svg" xmlns:xlink="http://www.w3.org/1999/xlink" width="400" height="432.6139088729017" viewBox="0, 0, 400,432.6139088729017"><g id="svgg"><path id="path0" d="M193.925 62.362 C 186.856 63.464,192.077 60.612,128.747 97.954 C 68.206 133.652,71.484 131.535,67.471 137.534 C 66.413 139.116,65.548 140.538,65.548 140.694 C 65.548 140.976,67.480 142.163,72.422 144.915 C 73.829 145.699,76.816 147.368,79.059 148.625 C 81.303 149.882,84.900 151.896,87.053 153.102 C 94.130 157.067,98.898 159.735,103.277 162.183 C 105.651 163.510,109.752 165.811,112.390 167.297 C 115.028 168.783,117.503 170.168,117.889 170.374 C 118.530 170.715,118.642 170.642,119.151 169.547 C 120.292 167.093,123.849 164.085,129.496 160.799 C 132.398 159.111,147.146 150.419,162.270 141.484 C 195.494 121.855,195.790 121.727,203.442 123.577 C 206.428 124.299,207.827 125.065,254.836 151.716 C 257.386 153.162,262.998 156.329,267.306 158.755 C 274.562 162.841,275.330 163.359,277.713 165.780 L 280.285 168.393 306.121 152.964 C 320.331 144.477,332.035 137.456,332.131 137.360 C 332.795 136.696,326.436 130.318,322.622 127.821 C 319.205 125.585,213.852 66.102,211.035 64.819 C 206.340 62.679,198.820 61.600,193.925 62.362 M202.238 154.270 C 203.118 154.506,203.880 154.657,203.933 154.605 C 204.110 154.432,201.993 153.797,201.311 153.819 C 200.942 153.830,201.359 154.034,202.238 154.270 M193.238 155.097 C 192.209 155.637,191.223 156.236,191.047 156.429 C 190.871 156.622,191.417 156.387,192.260 155.906 C 193.103 155.426,194.326 154.837,194.978 154.597 C 195.630 154.358,195.926 154.152,195.636 154.139 C 195.346 154.127,194.267 154.558,193.238 155.097 M206.395 155.979 C 208.577 157.302,211.671 158.957,211.671 158.801 C 211.671 158.600,206.031 155.395,205.681 155.397 C 205.546 155.398,205.867 155.660,206.395 155.979 M185.452 159.600 C 171.525 167.803,166.397 170.867,166.107 171.157 C 165.678 171.586,165.680 171.585,171.063 168.437 C 181.173 162.525,190.103 157.219,190.392 156.954 C 191.053 156.346,190.214 156.795,185.452 159.600 M212.150 159.137 C 212.387 159.376,221.004 164.301,226.139 167.132 C 226.271 167.204,226.379 167.195,226.379 167.110 C 226.379 167.025,224.113 165.670,221.343 164.099 C 214.653 160.304,211.762 158.743,212.150 159.137 M226.699 167.328 C 226.699 167.405,231.900 170.399,238.256 173.982 C 244.666 177.594,250.541 181.128,251.446 181.916 L 253.078 183.336 251.866 182.050 C 251.200 181.342,249.186 179.900,247.390 178.844 C 244.990 177.433,229.225 168.548,226.938 167.318 C 226.807 167.247,226.699 167.251,226.699 167.328 M163.389 172.614 C 154.103 178.101,151.878 179.448,151.878 179.581 C 151.878 179.768,151.147 180.181,158.753 175.705 C 164.623 172.251,166.006 171.380,165.612 171.385 C 165.532 171.386,164.532 171.939,163.389 172.614 M148.042 182.035 C 147.602 182.431,147.033 183.038,146.778 183.384 C 146.522 183.730,146.918 183.444,147.657 182.749 C 148.869 181.609,149.162 181.275,148.921 181.305 C 148.877 181.311,148.481 181.639,148.042 182.035 " stroke="none" fill="#3cdb83" fill-rule="evenodd"></path><path id="path1" d="M309.620 150.903 C 297.106 158.386,281.998 167.410,276.047 170.957 C 270.097 174.503,262.739 179.081,259.697 181.130 C 253.785 185.112,253.692 185.226,255.083 186.811 C 255.354 187.118,255.496 187.370,255.399 187.370 C 255.302 187.370,255.347 187.910,255.498 188.569 C 255.650 189.229,255.783 201.639,255.795 216.147 C 255.818 244.948,255.859 244.241,253.972 247.291 C 251.990 250.495,255.087 248.521,215.045 272.105 C 206.055 277.400,204.234 278.326,202.158 278.657 L 200.799 278.873 200.799 324.772 L 200.799 370.672 203.128 370.461 C 209.859 369.851,212.379 368.747,227.699 359.701 C 234.623 355.613,244.604 349.719,249.880 346.604 C 255.156 343.488,266.379 336.871,274.820 331.898 C 283.261 326.926,292.038 321.745,294.325 320.385 C 296.611 319.025,304.165 314.562,311.111 310.466 C 328.680 300.108,330.946 298.137,334.780 289.886 C 338.141 282.655,338.017 285.729,337.895 212.790 L 337.792 150.440 337.083 147.788 C 336.236 144.622,334.937 141.498,333.457 139.073 L 332.374 137.298 309.620 150.903 " stroke="none" fill="#4484f3" fill-rule="evenodd"></path><path id="path2" d="M64.436 143.332 C 63.962 144.604,63.269 146.867,62.895 148.361 L 62.215 151.079 62.113 218.225 C 62.043 264.271,62.117 286.061,62.349 287.565 C 63.552 295.381,67.235 300.055,76.152 305.084 C 81.253 307.961,91.871 313.957,100.400 318.777 C 103.125 320.318,109.888 324.135,115.428 327.259 C 125.132 332.732,127.906 334.300,141.167 341.804 C 187.056 367.771,187.432 367.977,190.670 369.003 C 193.135 369.783,197.555 370.584,199.402 370.584 L 200.799 370.584 200.799 324.746 L 200.799 278.908 198.851 278.704 C 196.101 278.417,196.454 278.600,170.957 264.197 C 147.112 250.728,146.236 250.179,145.065 247.992 L 144.365 246.683 144.278 218.246 C 144.204 193.886,144.259 189.578,144.665 188.194 C 144.926 187.305,145.036 186.480,144.911 186.360 C 144.253 185.729,133.189 179.078,126.779 175.460 C 118.190 170.612,66.990 141.914,65.982 141.382 C 65.338 141.043,65.245 141.161,64.436 143.332 " stroke="none" fill="#0a2c3a" fill-rule="evenodd"></path><path id="path3" d="M196.066 154.275 C 193.985 154.860,194.736 154.455,184.333 160.614 C 179.584 163.425,173.613 166.948,171.063 168.444 C 145.318 183.543,145.927 183.080,144.679 188.463 C 143.837 192.091,144.123 245.877,144.993 247.631 C 146.211 250.087,147.674 251.014,171.568 264.464 C 196.444 278.467,196.205 278.344,199.177 278.680 C 203.303 279.147,201.807 279.890,228.937 263.883 C 252.336 250.076,252.655 249.855,254.456 246.220 L 255.635 243.838 255.635 216.004 L 255.635 188.169 254.393 185.843 C 252.305 181.937,251.906 181.671,227.309 167.798 C 200.834 152.866,200.930 152.908,196.066 154.275 " stroke="none" fill="#d3f3fb" fill-rule="evenodd"></path><path id="path4" d="M194.245 123.577 C 191.361 124.359,190.037 125.101,162.270 141.494 C 147.146 150.423,132.412 159.111,129.527 160.799 C 123.033 164.600,119.673 167.574,118.831 170.268 C 118.639 170.885,124.453 174.580,125.616 174.580 C 125.816 174.580,125.979 174.707,125.979 174.861 C 125.979 175.016,126.447 175.331,127.018 175.563 C 127.590 175.794,128.129 176.068,128.217 176.173 C 128.425 176.420,134.233 179.696,134.463 179.696 C 134.560 179.696,134.911 179.948,135.244 180.256 C 135.577 180.564,136.538 181.175,137.379 181.615 C 138.221 182.054,139.156 182.630,139.458 182.894 C 139.759 183.157,140.699 183.733,141.546 184.173 C 142.393 184.612,143.157 185.052,143.245 185.150 C 144.477 186.525,144.918 186.431,146.033 184.558 C 146.631 183.555,147.623 182.374,148.239 181.934 C 148.855 181.495,149.530 180.988,149.739 180.809 C 150.170 180.440,156.079 176.904,166.427 170.824 C 170.296 168.550,178.061 163.981,183.684 160.670 C 200.362 150.850,197.366 150.510,223.181 165.148 C 226.962 167.292,233.221 170.821,237.090 172.990 C 249.450 179.919,250.112 180.332,252.038 182.320 C 253.050 183.364,253.877 184.410,253.877 184.646 C 253.877 184.881,256.431 183.346,259.552 181.235 C 262.674 179.123,268.393 175.520,272.262 173.227 C 276.131 170.934,279.494 168.875,279.735 168.651 C 280.882 167.588,275.802 163.545,267.306 158.758 C 262.998 156.331,257.386 153.162,254.836 151.716 C 237.381 141.820,208.095 125.322,207.034 124.788 C 203.870 123.193,197.786 122.617,194.245 123.577 " stroke="none" fill="#34bc6c" fill-rule="evenodd"></path></g></svg>