<svg width="750.5900146484374px" height="292.63999633789064px" xmlns="http://www.w3.org/2000/svg" viewBox="-125.29500732421872 -71.31999816894532 750.5900146484374 292.63999633789064" style="background: rgba(0, 0, 0, 0);" preserveAspectRatio="xMidYMid"><defs><linearGradient id="editing-gradient-gradient" x1="0" x2="1" y1="0.5" y2="0.5" gradientUnits="objectBoundingBox"><stop offset="0" stop-color="#f0f"></stop><stop offset="1" stop-color="#0ff"></stop></linearGradient></defs><g><g transform="translate(-18.499977111816406, 139.10000228881836)"><path d="M133-128.20L145.60 0L131.20 0L128.20-39L121.40-102.80L120-102.80L84.40-14.80L71.20-14.80L37.40-102.80L35.80-102.80L29-40.20L25.60 0L12 0L25.40-128.20L43.60-128.20L50.20-108.60L78-35.60L79.20-35.60L108.40-109.80L115-128.20L133-128.20ZM267.20-128.20L220.20 0L201.60 0L158.80-128.20L175.20-128.20L178.20-115.20L210.80-16.20L212-16.20L248-114.40L251.20-128.20L267.20-128.20ZM380-128.20L333 0L314.40 0L271.60-128.20L288-128.20L291-115.20L323.60-16.20L324.80-16.20L360.80-114.40L364-128.20L380-128.20ZM512.40-128.20L525 0L510.60 0L507.60-39L500.80-102.80L499.40-102.80L463.80-14.80L450.60-14.80L416.80-102.80L415.20-102.80L408.40-40.20L405.00 0L391.40 0L404.80-128.20L423.00-128.20L429.60-108.60L457.40-35.60L458.60-35.60L487.80-109.80L494.40-128.20L512.40-128.20Z" fill="url(#editing-gradient-gradient)"></path></g></g><style>text {
  font-size: 64px;
  font-family: Arial Black;
  dominant-baseline: central;
  text-anchor: middle;
}</style></svg>